<svg xmlns="http://www.w3.org/2000/svg" version="1.1" xmlns:xlink="http://www.w3.org/1999/xlink" xmlns:svgjs="http://svgjs.com/svgjs" width="1000" height="940" preserveAspectRatio="none" viewBox="0 0 1000 940"><g mask="url(&quot;#SvgjsMask1080&quot;)" fill="none"><rect width="1000" height="940" x="0" y="0" fill="url(#SvgjsLinearGradient1081)"></rect><path d="M0 0L223.83 0L0 449.22z" fill="rgba(255, 255, 255, .1)"></path><path d="M0 449.22L223.83 0L479.46000000000004 0L0 604.58z" fill="rgba(255, 255, 255, .075)"></path><path d="M0 604.58L479.46000000000004 0L752.6200000000001 0L0 687.85z" fill="rgba(255, 255, 255, .05)"></path><path d="M0 687.85L752.6200000000001 0L810.5400000000001 0L0 722.5500000000001z" fill="rgba(255, 255, 255, .025)"></path><path d="M1000 940L894.34 940L1000 527.52z" fill="rgba(0, 0, 0, .1)"></path><path d="M1000 527.52L894.34 940L846.27 940L1000 460.92999999999995z" fill="rgba(0, 0, 0, .075)"></path><path d="M1000 460.92999999999995L846.27 940L652.61 940L1000 390.55999999999995z" fill="rgba(0, 0, 0, .05)"></path><path d="M1000 390.55999999999995L652.61 940L612.98 940L1000 249.49999999999994z" fill="rgba(0, 0, 0, .025)"></path></g><defs><mask id="SvgjsMask1080"><rect width="1000" height="940" fill="#ffffff"></rect></mask><linearGradient x1="1.5%" y1="-1.6%" x2="98.5%" y2="101.6%" gradientUnits="userSpaceOnUse" id="SvgjsLinearGradient1081"><stop stop-color="#0e2a47" offset="0"></stop><stop stop-color="rgba(0, 0, 0, 1)" offset="1"></stop></linearGradient></defs></svg>